/* XPM */
static char *exit[] = {
/* columns rows colors chars-per-pixel */
"32 32 77 1 ",
"  c #2F2A3F",
". c #4B303C",
"X c #6F3737",
"o c #633438",
"O c #713636",
"+ c #7F3A34",
"@ c #743A38",
"# c #202741",
"$ c #222944",
"% c #282840",
"& c #242C48",
"* c #2B3454",
"= c #3A3752",
"- c #343C56",
"; c #3B3D57",
": c #46384C",
"> c #50435C",
", c #6A4741",
"< c #6E4C47",
"1 c #6C4B48",
"2 c #7B444A",
"3 c #7C5348",
"4 c #624D51",
"5 c #644F52",
"6 c #705655",
"7 c #735755",
"8 c #78585B",
"9 c #4B5670",
"0 c #4D5771",
"q c #55617B",
"w c #57627C",
"e c #7C6368",
"r c #A34030",
"t c #C0462C",
"y c #874445",
"u c #875C54",
"i c #845C59",
"p c #BA704E",
"a c #896968",
"s c #806C78",
"d c #AA6963",
"f c #A57462",
"g c #A77765",
"h c #B47D65",
"j c #B47D66",
"k c #B67F69",
"l c #A67070",
"z c #A67272",
"x c #D87741",
"c c #D17B4C",
"v c #CA7E56",
"b c #BE8870",
"n c #B98A77",
"m c #B2897B",
"M c #B28A7C",
"N c #BD8E7B",
"B c #CF825A",
"V c #C38669",
"C c #5F6C86",
"Z c #606D87",
"A c #7886A0",
"S c #80889F",
"D c #86899F",
"F c #958C9D",
"G c #A38681",
"H c #A38683",
"J c #AC8F88",
"K c #A8918F",
"L c #A79190",
"P c #8291AB",
"I c #9A95A1",
"U c #9698A8",
"Y c #8C9CB6",
"T c #ABA0AC",
"R c #ABA1AD",
"E c #A6B4C9",
"W c #A7B5CA",
/* pixels */
"tttttttVttttttttpVttttttVttttttV",
"@ttt@ttx@tpttttttVpttttpxttttttx",
"ttttttpxptt@tttppVptt@tpVpt@@ttx",
"VVVxxVVxxxVVxxxVVxxxVVVVVVxxxVVx",
"tVpptttt@Vpt+:>>>>yVpttttttVtttt",
"tVpttttttVp+ $&&&&=attttttpVtttt",
"tVttttttxV3%##,ro#$;ittttttV@ttt",
"VVVVVxxVVV7##4hVj5#*eVVVxxVxVVxx",
"tttttV@ttp<##1tttO#*2Vp@tttttVtt",
"tttttVttttO##XtttO#*8VptttttpVtt",
"ttpttVttttO##1tttO#*uV@ttttptx@t",
"VxxxVVxxxx7##6VVVjfgkVVVVVxxxxVV",
"ttV@tttptVO##XttVppttttVpttVtttt",
"ttVttt@ttV.##Xt@VttttttVtttVtttt",
"ttV@tttdFUSAADFFUIFFFTRJpttV@ttt",
"VVxVVxVmYYYYYYYYYYYYYEWLVVVxVVVV",
"tttppVtlYYYYYYYYYYYYYEWzttttVttt",
"t@t@tVtlYYYYYYYYYYYYYEWHttttxttt",
"tttttVxlYYYYYZ--CYYYYEWzttttx@@t",
"VxVVVxVKYYYYYw##qYYYYEWLVVVVxxxV",
"tVtttttlYYYYYP09PYYYYEWzttVttttt",
"tVtttttlYYYYYYwqYYYYYEWzttVtttt@",
"tVptpttGYYYYYYwqYYYYYEWztpx@ttt@",
"VxVVxxVKYYYYYYPPYYYYYEWMVVVVVxVV",
"@ttttV@lYYYYYYYYYYYYYEWztttttVt@",
"tttttVtGYYYYYYYYYYYYYEWztttttVt@",
"tt@ppV@lYYYYYYYYYYYYYEWstpxt@Vt@",
"VVVxVVVbnnnnnvnnnnnvnNBcVVVVxVVV",
"tttxtttpttpV@tttttpVptttttpVttt@",
"tttVtttttttVtttttttVttttttpVtttt",
"t@@xtttttttV@ttttttVpt@ttttVtttt",
"VVVxxVVVxVVxVVVVVVxVVVVxxxVVVVVV"
};
