/* XPM */
static char *item[] = {
/* columns rows colors chars-per-pixel */
"32 32 61 1 ",
"  c #743A38",
". c #7C453B",
"X c #824239",
"o c #AD5D3D",
"O c #AF6C35",
"+ c #C0462C",
"@ c #C24A2E",
"# c #C44C2F",
"$ c #C4502F",
"% c #C65531",
"& c #CB5E36",
"* c #D66D2F",
"= c #DA732E",
"- c #CE6238",
"; c #D06539",
": c #D4713E",
"> c #BA704E",
", c #BC704D",
"< c #CA6F40",
"1 c #CD7546",
"2 c #D67440",
"3 c #D77741",
"4 c #D47643",
"5 c #D67742",
"6 c #D87741",
"7 c #D67843",
"8 c #D57946",
"9 c #DA7A40",
"0 c #DB7B40",
"q c #DA7E43",
"w c #D87F46",
"e c #CF7E52",
"r c #CD7F55",
"t c #D17D50",
"y c #E78C37",
"u c #ED9738",
"i c #D68240",
"p c #DB8043",
"a c #DD8242",
"s c #DD8343",
"d c #DA8C43",
"f c #DE9345",
"g c #DC9751",
"h c #D7A456",
"j c #E7A94E",
"k c #F5BE48",
"l c #F6BF4B",
"z c #E7AE53",
"x c #EBAF51",
"c c #EBB151",
"v c #EBB554",
"b c #EEB853",
"n c #C68464",
"m c #C58466",
"M c #C38669",
"N c #C78C69",
"B c #DCA961",
"V c #D8AA66",
"C c #DCB066",
"Z c #FDC846",
"A c #FED04D",
/* pixels */
"+++++++M++++++++>M++++++M++++++M",
" +++ ++6 +>++++++M>++++>6++++++6",
"++++++>6>++ +++>>M>++ +>M>+  ++6",
"MMM66MM666MM666MM666MMMMMM666MM6",
"+M>>++++ M>++++++++M>++++++M++++",
"+M>++++++M>+++++>>+M++++++>M++++",
"+M++++++6M>  +6++++M>++++++M +++",
"MMMMM66MMMMMMMMMMMM6MMMM66M6MM66",
"+++++M ++>>M >++++++iCh.+++++M++",
"+++++M+++++M +++++idvbbfd$++>M++",
"++>++M+++++M >++++jbp66xb%+>+6 +",
"M666MM6666M6MMMMMVw6tee76Bq666MM",
"++M +++>+M++++++Mzp;@++r5x%M++++",
"++M+++ ++M ++++ M:6#+++M:6#M++++",
"++M ++*==gO=====g96#+++M46#M +++",
"MM6MM6lZZZZZZZZZZa6nMMMM86n6MMMM",
"+++>>MkAAAAAAAAAAs6n>+++:6#+M+++",
"+ + +Myuuuuuuuuuu06n ++>:6#+6+++",
"+++++M32661eo----26n>+++:6#+6  +",
"M6MMM6M86tmMMMMMM86BNMMVw6nM666M",
"+M+++++:6X+++++>+r5xfddcp;m+++++",
"+M+++++&6,+++++++M:6xbbp6#M++++ ",
"+M>+>++>M + +++ +M<6666;-,6 +++ ",
"M6MM66MM6MMM6666MMree6e6MMMMM6MM",
" ++++M ++++++M>+++++>6+++++++M+ ",
"+++++M+>+++++6++++++>6>++++++M+ ",
"++ >>M +++++>M  +++++M  +>6+ M+ ",
"MMM6MMMMMMMMM6MMMMM6MM66MMMM6MMM",
"+++6+++>++>M +++++>M>+++++>M+++ ",
"+++M+++++++M+++++++M++++++>M++++",
"+  6+++++++M ++++++M>+ ++++M++++",
"MMM66MMM6MM6MMMMMM6MMMM666MMMMMM"
};
