/* XPM */
static char *player[] = {
/* columns rows colors chars-per-pixel */
"32 32 144 2 ",
"   c #382C3E",
".  c #412D3D",
"X  c #432E3C",
"o  c #452E3C",
"O  c #4C303B",
"+  c #4F3839",
"@  c #5F3E36",
"#  c #53313A",
"$  c #54313A",
"%  c #56313A",
"&  c #58323A",
"*  c #6D3637",
"=  c #6F3637",
"-  c #603339",
";  c #643438",
":  c #723736",
">  c #773835",
",  c #7F3C36",
"<  c #743A38",
"1  c #7F582A",
"2  c #202741",
"3  c #222741",
"4  c #252D49",
"5  c #28304E",
"6  c #333D60",
"7  c #633C45",
"8  c #693C41",
"9  c #354064",
"0  c #364065",
"q  c #364165",
"w  c #374267",
"e  c #775758",
"r  c #575168",
"t  c #5F5568",
"y  c #6E5D68",
"u  c #803A34",
"i  c #853B34",
"p  c #983E31",
"a  c #993E31",
"s  c #9D3F31",
"d  c #884E2F",
"f  c #814B30",
"g  c #A7412F",
"h  c #AC422F",
"j  c #B0432E",
"k  c #B1432E",
"l  c #B3442E",
"z  c #B7442D",
"x  c #B9442D",
"c  c #B9452D",
"v  c #BA462E",
"b  c #BD452C",
"n  c #BE462C",
"m  c #BF462C",
"M  c #A1572B",
"N  c #A14030",
"B  c #A04131",
"V  c #A64638",
"C  c #AE4D3D",
"Z  c #BF5236",
"A  c #BD5D3E",
"S  c #BB6126",
"D  c #EC6D1F",
"F  c #ED6D1F",
"G  c #EF701E",
"H  c #EE741E",
"J  c #F2721D",
"K  c #F3731D",
"L  c #F2751D",
"P  c #F5751D",
"I  c #F7771C",
"U  c #C0462C",
"Y  c #C44A2B",
"T  c #C0492F",
"R  c #C44D2F",
"E  c #D85B25",
"W  c #C14B31",
"Q  c #C1583D",
"!  c #C1593E",
"~  c #CE6823",
"^  c #DD6023",
"/  c #DE6023",
"(  c #D66B22",
")  c #DF6E20",
"_  c #E06223",
"`  c #E36522",
"'  c #E46621",
"]  c #E26F20",
"[  c #E86920",
"{  c #E86A21",
"}  c #E87024",
"|  c #E97927",
" . c #E1762A",
".. c #E6752A",
"X. c #E6792A",
"o. c #E57A2A",
"O. c #F17621",
"+. c #F27722",
"@. c #F07624",
"#. c #E87C33",
"$. c #854445",
"%. c #AD5C48",
"&. c #B96D49",
"*. c #A27046",
"=. c #BA704E",
"-. c #AF7951",
";. c #A87868",
":. c #C16146",
">. c #C86144",
",. c #CA6649",
"<. c #CB6A4C",
"1. c #C57145",
"2. c #C87E41",
"3. c #D77540",
"4. c #D87740",
"5. c #D87741",
"6. c #CE7657",
"7. c #C17559",
"8. c #C2755A",
"9. c #CC7E5F",
"0. c #C27F62",
"q. c #BD8368",
"w. c #BF8469",
"e. c #C28568",
"r. c #C38669",
"t. c #C48568",
"y. c #D58A69",
"u. c #D18F6D",
"i. c #D68E6D",
"p. c #D99876",
"a. c #DCA07E",
"s. c #267DAA",
"d. c #457C9D",
"f. c #3B80A6",
"g. c #2794BF",
"h. c #0E94D0",
"j. c #0999D6",
"k. c #009ADD",
"l. c #B4B080",
"z. c #D6AC8A",
"x. c #CBBF92",
"c. c #D3C499",
"v. c #E8CAA3",
"b. c #E8D2AA",
/* pixels */
"U U U U U U U r.U U U U U U U U =.r.U U U U U U r.U U U U U U r.",
"< U U U < U U 5.< U =.U U U U U U r.=.U U U U =.5.U U U U U U 5.",
"U U U U U U =.5.=.U $.w w w w w w w w w w 7 U =.r.=.U < < U U 5.",
"r.r.r.5.5.r.r.5.1.e r w w w w w w w w w w t y w.r.r.5.5.5.r.r.5.",
"U r.=.=.U U U U 8 w w w w w w w w w w w w w w v U U U r.U U U U ",
"U r.=.U U U U U V w w w w w w w w w w w w w w v U U =.r.U U U U ",
"U r.U U U U U U &.w w w w w w w w w w w w w w v U U U r.< U U U ",
"r.r.r.r.r.5.5.r.;.9 q w w w w w w w w w w 0 9 q.5.5.r.5.r.r.5.5.",
"U U U U U r.< U N 2 5 6 6 6 6 6 6 6 6 6 6 4 2 , U U U U U r.U U ",
"U U U U U r.U U N 2 2 2 2 2 2 2 2 2 2 2 2 2 2 c U U U U =.r.U U ",
"U U =.U U r.U U N 2 2 2 2 2 2 2 2 2 2 2 2 2 2 c U U U =.U 5.< U ",
"r.5.5.5.r.r.5.U N 2 o > > > > > > > > > >   2 c W r.5.5.5.5.r.r.",
"U U r.< U U U U N 2 ; U U U U U U U U U U O 2 c T U U r.U U U U ",
"U U r.U U U < U x s h U * X l U U N X u U g s 7.U U U r.U U U U ",
"U U r.< U U G J { U U U % 2 j U U p 2 * U U U @.O.[ U r.< U U U ",
"r.r.5.r.t.+.I I D b m U & 3 j U U a 3 = U n b P I I #.4.r.r.r.r.",
"U U U =...I I I ~ 2 ; U U U U U U U U U U O 2 H I I I _ r.U U U ",
"U < U < / P I I ~ 2 # p p z ,.<.<.>.k p p . 2 H I I K E 5.U U U ",
"U U U U U ^ ` ' ~ 2 2 2 2 s p.a.a.y.i 2 2 2 2 H ` ` E U 5.< < U ",
"r.5.r.r.Q U U Y ] d d + 2 - : : : : $ 2 @ d d L U U U :.5.5.5.r.",
"U r.U U U U U Y I I I f 2 2 2 2 2 2 2 2 M I I I U U U U U U U U ",
"U r.U U U U U Y I I I ( S S S S S S S S ) I I I U U U U U U U < ",
"U r.=.U Z U U Y I I I I I I I I I I I I I I I I U U U B U U U < ",
"r.5.r.r.3.R U Y I I I I I I I I I I I I I I I I U U ! e.r.5.r.r.",
"< U U U U r.< o.| I I I I I I I I I I I I I I X. .U U U U r.U < ",
"U U U U U r.U k.g.2.2.2.2.2.2.F } 2.2.2.2.2.2.j.h.U U U U r.U < ",
"U U < =.=.r.< f.f.f.f.f.f.f.s.< C f.f.f.f.f.f.f.d.=.5.U < r.U < ",
"r.r.r.5.r.r.r.U U U U U U U 0.r.r.8.U U U U U U W r.r.r.5.r.r.r.",
"U U U 5.U U U u.1 1 1 -.%.U U U U U A 9.*.1 1 1 i.U =.r.U U U < ",
"U U U r.U U U b.l.l.l.c.6.U U U U U U z.x.l.l.l.v.U =.r.U U U U ",
"U < < 5.U U U U U U U r.< U U U U U U r.=.U < U U U U r.U U U U ",
"r.r.r.5.5.r.r.r.5.r.r.5.r.r.r.r.r.r.5.r.r.r.r.5.5.5.r.r.r.r.r.r."
};
